<?xml version="1.0" standalone="no"?>
<!DOCTYPE svg PUBLIC "-//W3C//DTD SVG 20010904//EN" "http://www.w3.org/TR/2001/REC-SVG-20010904/DTD/svg10.dtd">
<svg xmlns="http://www.w3.org/2000/svg" version="1.0" width="128.000000pt" height="128.000000pt" viewBox="0 0 128.000000 128.000000" preserveAspectRatio="xMidYMid meet">
<metadata>
Created by potrace 1.16, written by Peter Selinger 2001-2019
<meta name="Producer" content="Online-Convert"/></metadata>
<g transform="translate(0.000000,128.000000) scale(0.100000,-0.100000)" fill="#000000" stroke="none">
<path d="M371 1258 c-41 -20 -101 -94 -101 -124 0 -7 -14 -15 -30 -19 -65 -14 -129 -100 -130 -173 0 -24 -8 -40 -34 -62 -51 -45 -76 -107 -76 -187 1 -43 7 -81 18 -103 17 -33 17 -37 0 -72 -12 -24 -18 -60 -18 -104 0 -81 24 -138 78 -185 20 -18 44 -49 53 -69 46 -103 138 -160 260 -160 65 0 85 4 130 28 32 17 66 45 84 69 16 23 32 42 35 42 3 0 19 -19 35 -42 18 -24 52 -52 84 -69 45 -24 65 -28 130 -28 122 0 214 57 260 160 9 20 33 51 53 69 55 48 78 104 78 187 -1 44 -7 81 -18 104 -17 33 -17 37 0 72 42 87 14 224 -58 288 -26 22 -34 38 -34 62 -1 72 -64 158 -127 173 -21 5 -34 19 -52 56 -32 69 -83 102 -166 107 -68 5 -108 -10 -157 -56 l-28 -26 -27 26 c-67 62 -161 76 -242 36z m159 -57 c19 -10 45 -36 57 -57 20 -35 23 -53 23 -176 l0 -138 -64 0 c-57 0 -65 3 -71 21 -10 29 -64 59 -108 59 -44 0 -91 -39 -103 -84 -16 -65 38 -136 103 -136 44 0 98 30 108 59 6 18 14 21 71 21 l64 0 0 -155 0 -155 -60 0 c-57 0 -63 2 -91 35 -38 43 -87 54 -135 32 -68 -33 -82 -122 -28 -179 23 -23 36 -28 75 -28 50 0 93 25 104 60 5 17 15 20 72 20 l65 0 -4 -93 c-5 -101 -17 -134 -69 -185 -46 -45 -106 -66 -174 -60 -78 7 -131 45 -170 125 -18 36 -43 69 -61 81 -39 25 -74 95 -74 148 0 22 11 61 26 90 l25 50 -25 49 c-16 29 -26 64 -26 88 0 54 33 119 76 152 27 21 34 33 34 60 0 78 58 155 117 155 25 0 39 16 47 56 7 31 42 71 81 92 30 17 76 14 115 -7z m333 8 c40 -20 76 -61 83 -93 8 -40 22 -56 46 -56 60 0 117 -73 118 -152 0 -30 6 -42 34 -63 43 -33 76 -98 76 -152 0 -24 -10 -59 -26 -88 l-25 -49 25 -50 c15 -29 26 -68 26 -90 0 -54 -35 -123 -76 -149 -19 -12 -39 -36 -44 -54 -53 -157 -248 -204 -363 -87 -56 56 -62 76 -65 247 l-4 157 82 0 c53 0 93 5 114 15 36 17 76 79 76 116 0 15 13 34 35 52 108 86 -1 246 -125 182 -37 -19 -50 -43 -50 -95 0 -52 13 -76 50 -95 26 -13 29 -20 24 -43 -3 -15 -17 -37 -31 -50 -20 -19 -35 -22 -99 -22 l-75 0 3 268 c3 257 4 268 25 298 39 55 116 79 166 53z"/>
</g>
</svg>
