<?xml version="1.0" standalone="no"?>
<!DOCTYPE svg PUBLIC "-//W3C//DTD SVG 20010904//EN" "http://www.w3.org/TR/2001/REC-SVG-20010904/DTD/svg10.dtd">
<svg xmlns="http://www.w3.org/2000/svg" version="1.0" width="128.000000pt" height="128.000000pt" viewBox="0 0 128.000000 128.000000" preserveAspectRatio="xMidYMid meet">
<metadata>
Created by potrace 1.16, written by Peter Selinger 2001-2019
<meta name="Producer" content="Online-Convert"/></metadata>
<g transform="translate(0.000000,128.000000) scale(0.100000,-0.100000)" fill="#000000" stroke="none">
<path d="M260 1257 c0 -27 -27 -44 -44 -27 -17 17 -41 11 -69 -18 -29 -30 -34 -51 -17 -68 16 -16 0 -44 -25 -44 -26 0 -35 -17 -35 -64 0 -35 15 -56 41 -56 23 0 29 -21 14 -51 -13 -22 -11 -27 18 -56 32 -34 55 -41 73 -23 17 17 44 0 44 -27 0 -23 2 -24 58 -21 50 3 57 6 60 25 4 25 30 39 46 23 17 -17 41 -11 69 18 29 30 34 51 16 69 -17 17 -4 41 23 45 21 3 23 9 26 61 3 55 2 57 -21 57 -27 0 -44 27 -27 44 18 18 11 41 -20 71 -27 26 -34 28 -59 18 -33 -12 -47 -6 -52 22 -4 17 -13 20 -62 23 -55 3 -57 2 -57 -21z m80 -26 c0 -28 28 -45 75 -46 51 0 60 -7 47 -32 -14 -25 9 -79 37 -88 29 -9 27 -41 -2 -49 -29 -7 -50 -63 -33 -89 15 -23 -8 -46 -31 -31 -26 17 -82 -4 -89 -33 -8 -29 -40 -31 -49 -2 -9 28 -63 51 -88 37 -25 -13 -32 -4 -32 47 -1 47 -18 75 -46 75 -12 0 -19 7 -19 20 0 11 6 20 13 20 33 0 51 28 52 76 l0 49 49 0 c48 1 76 19 76 52 0 7 9 13 20 13 13 0 20 -7 20 -19z"/>
<path d="M270 1142 c-50 -24 -75 -78 -60 -131 15 -55 50 -81 112 -81 70 0 108 38 108 108 0 61 -25 97 -78 112 -47 13 -41 13 -82 -8z m103 -54 c23 -27 22 -73 -3 -98 -43 -43 -123 -12 -123 48 0 72 79 103 126 50z"/>
<path d="M875 1268 c-2 -7 -5 -22 -7 -33 -2 -11 -14 -25 -27 -32 -21 -10 -28 -9 -49 8 -35 27 -44 25 -91 -26 l-42 -46 21 -33 c29 -48 7 -86 -50 -86 -20 0 -21 -4 -18 -72 3 -71 4 -73 31 -76 15 -2 34 -14 43 -27 15 -23 14 -26 -6 -56 l-23 -31 51 -50 50 -51 31 23 c30 20 33 21 56 6 13 -9 25 -28 27 -43 3 -27 5 -28 76 -31 66 -3 72 -1 72 17 0 59 37 81 85 51 l34 -21 46 42 c51 47 53 56 26 91 -17 21 -18 28 -8 49 8 15 24 26 42 29 30 5 30 6 33 78 3 69 2 72 -20 72 -50 0 -76 44 -47 80 10 14 19 29 19 35 0 13 -82 95 -95 95 -5 0 -21 -9 -34 -19 -37 -29 -81 -4 -81 46 0 22 -4 23 -70 23 -48 0 -72 -4 -75 -12z m111 -53 c5 -29 13 -39 41 -50 46 -19 62 -19 85 2 18 16 20 15 45 -10 25 -25 26 -27 10 -45 -21 -23 -21 -39 -2 -85 11 -28 21 -36 50 -41 32 -6 35 -10 35 -40 0 -29 -4 -33 -36 -42 -30 -7 -39 -16 -52 -48 -14 -36 -14 -42 2 -69 16 -29 16 -31 -5 -53 -21 -23 -23 -23 -51 -7 -25 16 -32 16 -70 3 -34 -12 -43 -21 -50 -47 -8 -29 -13 -33 -42 -33 -29 0 -34 4 -42 33 -8 25 -18 35 -51 46 -36 13 -46 13 -68 1 -23 -12 -28 -12 -47 8 -20 19 -20 24 -8 47 12 22 12 32 -1 68 -11 33 -21 43 -46 51 -29 8 -33 13 -33 42 0 29 4 34 33 42 26 7 35 16 47 50 13 38 13 45 -3 70 -16 28 -16 30 7 51 22 21 24 21 53 5 27 -16 33 -16 69 -2 32 13 41 22 48 52 9 32 13 36 42 36 30 0 34 -3 40 -35z"/>
<path d="M870 1082 c-49 -26 -83 -93 -77 -151 8 -73 65 -130 138 -138 58 -6 125 28 151 77 35 67 15 160 -44 203 -39 29 -123 34 -168 9z m130 -37 c81 -42 77 -161 -8 -201 -92 -44 -192 55 -148 148 29 62 96 84 156 53z"/>
<path d="M295 719 c-10 -56 -44 -70 -99 -39 l-39 22 -51 -51 -51 -51 23 -40 c30 -53 16 -88 -40 -96 l-38 -7 0 -78 0 -79 39 -6 c31 -5 42 -12 51 -35 10 -24 9 -32 -9 -58 -12 -16 -21 -33 -21 -38 0 -11 93 -103 104 -103 4 0 21 9 37 21 26 18 34 19 58 9 23 -9 30 -20 35 -51 l6 -39 79 0 78 0 7 38 c8 56 43 70 96 40 l40 -23 51 51 51 51 -22 39 c-31 55 -17 89 39 99 l41 7 0 74 c0 51 -4 76 -12 78 -59 16 -74 24 -82 48 -7 20 -4 32 12 56 12 16 22 33 22 36 0 10 -72 87 -92 97 -14 8 -26 5 -49 -12 -25 -17 -37 -20 -57 -13 -24 8 -32 23 -48 82 -2 8 -27 12 -78 12 l-74 0 -7 -41z m132 -36 c7 -32 15 -39 56 -56 l48 -20 28 21 28 21 28 -29 c28 -29 28 -30 11 -62 -17 -32 -17 -35 3 -80 14 -34 26 -48 40 -48 40 0 51 -11 51 -51 0 -40 -2 -42 -50 -53 -18 -4 -30 -18 -43 -48 -21 -54 -21 -54 3 -86 l21 -26 -29 -29 -29 -29 -32 20 c-31 19 -34 19 -79 2 -43 -16 -48 -22 -55 -60 -8 -41 -8 -41 -50 -38 -40 3 -42 5 -47 38 -4 30 -12 38 -53 58 l-48 22 -31 -21 -30 -22 -30 31 -31 30 22 30 21 31 -22 48 c-20 41 -28 49 -58 53 -33 5 -35 7 -38 47 -3 42 -3 42 38 50 38 7 44 12 60 55 17 45 17 48 -2 79 l-20 32 29 29 29 29 26 -21 c32 -24 32 -24 86 -2 30 12 44 24 48 42 11 48 13 50 53 50 37 0 40 -2 48 -37z"/>
<path d="M310 539 c-95 -38 -135 -171 -77 -257 62 -95 205 -101 280 -12 68 80 38 219 -56 264 -39 18 -108 20 -147 5z m131 -44 c87 -46 90 -175 4 -231 -33 -22 -94 -21 -132 1 -40 24 -66 69 -66 116 0 95 108 158 194 114z"/>
</g>
</svg>
