<?xml version="1.0" standalone="no"?>
<!DOCTYPE svg PUBLIC "-//W3C//DTD SVG 20010904//EN" "http://www.w3.org/TR/2001/REC-SVG-20010904/DTD/svg10.dtd">
<svg xmlns="http://www.w3.org/2000/svg" version="1.0" width="128.000000pt" height="128.000000pt" viewBox="0 0 128.000000 128.000000" preserveAspectRatio="xMidYMid meet">
<metadata>
Created by potrace 1.16, written by Peter Selinger 2001-2019
<meta name="Producer" content="Online-Convert"/></metadata>
<g transform="translate(0.000000,128.000000) scale(0.100000,-0.100000)" fill="#000000" stroke="none">
<path d="M285 1261 c-16 -10 -51 -41 -77 -69 -44 -47 -48 -55 -48 -102 0 -49 3 -54 67 -123 167 -181 267 -278 285 -275 10 2 90 79 178 173 207 219 210 234 85 354 l-63 61 -199 0 c-175 0 -201 -2 -228 -19z m286 -248 c-11 -27 -29 -72 -42 -101 l-22 -53 -38 93 c-22 51 -39 96 -39 101 0 4 36 7 80 7 l80 0 -19 -47z"/>
<path d="M973 683 c-62 -65 -113 -121 -113 -126 0 -4 -19 13 -43 38 l-44 45 -322 0 c-340 0 -342 0 -394 -49 -54 -49 -57 -64 -57 -271 0 -207 3 -222 57 -271 51 -48 59 -49 310 -49 227 0 241 2 308 25 110 39 160 82 367 313 244 273 238 264 238 325 0 90 -49 137 -142 137 l-53 0 -112 -117z m222 32 c34 -33 31 -67 -7 -112 -112 -129 -361 -404 -396 -435 -100 -90 -172 -108 -431 -108 -298 0 -301 3 -301 260 0 180 7 206 63 240 30 19 52 20 325 20 l293 0 24 -25 c33 -32 34 -83 2 -113 -19 -18 -51 -25 -207 -44 -176 -22 -185 -24 -188 -46 -2 -14 3 -25 14 -29 29 -11 344 27 391 47 27 12 48 30 59 52 16 31 189 228 255 291 36 34 72 35 104 2z"/>
</g>
</svg>
