<?xml version="1.0" standalone="no"?>
<!DOCTYPE svg PUBLIC "-//W3C//DTD SVG 20010904//EN" "http://www.w3.org/TR/2001/REC-SVG-20010904/DTD/svg10.dtd">
<svg xmlns="http://www.w3.org/2000/svg" version="1.0" width="128.000000pt" height="128.000000pt" viewBox="0 0 128.000000 128.000000" preserveAspectRatio="xMidYMid meet">
<metadata>
Created by potrace 1.16, written by Peter Selinger 2001-2019
<meta name="Producer" content="Online-Convert"/></metadata>
<g transform="translate(0.000000,128.000000) scale(0.100000,-0.100000)" fill="#000000" stroke="none">
<path d="M480 1265 c-87 -24 -210 -89 -272 -145 -69 -61 -138 -163 -175 -256 -25 -64 -27 -80 -28 -219 0 -133 3 -157 23 -214 52 -139 138 -251 250 -324 85 -55 163 -88 215 -90 38 -2 42 0 42 22 0 20 -10 27 -77 51 -171 60 -310 197 -368 363 -30 86 -38 231 -16 317 29 114 71 187 160 275 129 128 268 182 436 172 192 -12 366 -118 464 -281 20 -33 36 -63 36 -68 0 -4 -47 -8 -104 -8 -121 0 -136 -4 -136 -35 0 -13 7 -26 16 -29 9 -3 69 -6 135 -6 134 0 185 13 194 52 3 13 4 86 3 163 l-3 140 -25 0 c-25 0 -25 0 -28 -109 l-3 -108 -38 59 c-78 121 -207 221 -341 265 -86 27 -280 35 -360 13z"/>
<path d="M642 1008 c-8 -8 -12 -65 -12 -190 l0 -178 -154 0 c-133 0 -155 -2 -160 -16 -15 -38 9 -44 188 -44 120 0 176 4 184 12 9 9 12 69 12 208 0 194 -4 220 -35 220 -6 0 -16 -5 -23 -12z"/>
<path d="M703 410 c-57 -34 -89 -114 -58 -140 23 -19 45 -3 59 40 21 67 93 75 132 15 25 -39 8 -64 -94 -139 -94 -69 -102 -79 -102 -126 0 -54 19 -61 149 -58 l116 3 0 25 c0 25 -1 25 -105 30 l-105 5 59 45 c121 91 148 122 153 170 11 111 -109 188 -204 130z"/>
<path d="M1017 424 c-14 -14 -8 -184 8 -214 20 -39 38 -47 122 -55 l72 -8 3 -71 c3 -69 4 -71 31 -74 l27 -3 -2 213 -3 213 -25 0 c-25 0 -25 -1 -28 -102 l-3 -103 -58 0 c-80 0 -89 13 -93 120 -3 77 -5 85 -23 88 -12 2 -24 0 -28 -4z"/>
</g>
</svg>
