<?xml version="1.0" standalone="no"?>
<!DOCTYPE svg PUBLIC "-//W3C//DTD SVG 20010904//EN" "http://www.w3.org/TR/2001/REC-SVG-20010904/DTD/svg10.dtd">
<svg xmlns="http://www.w3.org/2000/svg" version="1.0" width="128.000000pt" height="128.000000pt" viewBox="0 0 128.000000 128.000000" preserveAspectRatio="xMidYMid meet">
<metadata>
Created by potrace 1.16, written by Peter Selinger 2001-2019
<meta name="Producer" content="Online-Convert"/></metadata>
<g transform="translate(0.000000,128.000000) scale(0.100000,-0.100000)" fill="#000000" stroke="none">
<path d="M338 1261 c-156 -51 -273 -170 -320 -324 -27 -91 -22 -244 11 -330 51 -131 174 -245 307 -287 95 -29 226 -27 319 5 l70 24 41 -41 c28 -27 52 -41 74 -43 25 -2 56 -27 164 -134 132 -131 133 -131 180 -131 65 0 96 31 96 96 0 47 0 48 -131 180 -107 108 -132 139 -134 164 -2 22 -16 46 -43 74 l-41 41 26 75 c84 249 -43 527 -284 621 -82 32 -253 37 -335 10z m284 -51 c133 -41 249 -158 289 -292 27 -87 23 -205 -10 -288 -104 -269 -444 -366 -672 -192 -287 218 -216 653 126 771 79 27 183 27 267 1z m310 -737 c15 -15 28 -31 28 -37 0 -14 -101 -116 -115 -116 -6 0 -24 13 -39 29 l-27 28 58 61 c32 33 60 60 62 61 3 0 18 -11 33 -26z m298 -378 c0 -27 -18 -45 -44 -45 -13 0 -68 48 -148 127 l-128 127 32 33 32 33 128 -127 c81 -81 128 -135 128 -148z"/>
<path d="M380 1184 c-227 -61 -355 -309 -275 -534 71 -201 299 -315 504 -251 223 69 340 291 271 515 -65 208 -286 327 -500 270z m234 -62 c112 -44 192 -134 222 -251 48 -189 -72 -379 -269 -427 -193 -48 -384 80 -428 287 -22 101 19 226 101 309 101 100 246 133 374 82z"/>
<path d="M526 800 l-140 -120 -36 35 c-39 38 -67 45 -77 19 -9 -23 100 -129 121 -117 8 4 83 66 166 137 148 127 172 158 125 163 -13 2 -68 -38 -159 -117z"/>
</g>
</svg>
